<svg width="52" height="52" viewBox="0 0 52 52" fill="none" xmlns="http://www.w3.org/2000/svg">
  <defs>
    <linearGradient id="g1" x1="10" y1="0" x2="42" y2="52" gradientUnits="userSpaceOnUse">
      <stop offset="0%" stop-color="#a78bfa"/>
      <stop offset="100%" stop-color="#6d28d9"/>
    </linearGradient>
    <linearGradient id="g2" x1="26" y1="8" x2="26" y2="44" gradientUnits="userSpaceOnUse">
      <stop offset="0%" stop-color="#c4b5fd"/>
      <stop offset="100%" stop-color="#8b5cf6"/>
    </linearGradient>
    <filter id="glow">
      <feGaussianBlur stdDeviation="2" result="blur"/>
      <feMerge><feMergeNode in="blur"/><feMergeNode in="SourceGraphic"/></feMerge>
    </filter>
  </defs>
  <!-- Diamond background -->
  <rect x="26" y="2" width="33.94" height="33.94" rx="7" transform="rotate(45 26 2)" fill="url(#g1)" opacity="0.15"/>
  <rect x="26" y="4" width="31.11" height="31.11" rx="6" transform="rotate(45 26 4)" fill="none" stroke="url(#g1)" stroke-width="1.2" opacity="0.4"/>
  
  <!-- Branch lines -->
  <g filter="url(#glow)">
    <!-- Main trunk -->
    <line x1="22" y1="14" x2="22" y2="40" stroke="url(#g2)" stroke-width="3" stroke-linecap="round"/>
    <!-- Branch off -->
    <path d="M22 20 C22 20, 24 20, 28 16" stroke="url(#g2)" stroke-width="3" stroke-linecap="round" fill="none"/>
    <!-- Merge back -->
    <path d="M22 32 C22 32, 24 32, 28 28" stroke="url(#g2)" stroke-width="3" stroke-linecap="round" fill="none" opacity="0.5" stroke-dasharray="2 3"/>
  </g>
  
  <!-- Nodes -->
  <circle cx="22" cy="14" r="3.5" fill="#c4b5fd" stroke="#0a0a0f" stroke-width="1.5"/>
  <circle cx="22" cy="40" r="3.5" fill="#7c3aed" stroke="#0a0a0f" stroke-width="1.5"/>
  <circle cx="30" cy="14" r="3" fill="#a78bfa" stroke="#0a0a0f" stroke-width="1.5"/>
  <circle cx="30" cy="26" r="3" fill="#8b5cf6" stroke="#0a0a0f" stroke-width="1.5" opacity="0.6"/>
  
  <!-- Trend arrow -->
  <g opacity="0.9">
    <polyline points="30,36 35,30 38,32 44,24" stroke="#22d3ee" stroke-width="2" stroke-linecap="round" stroke-linejoin="round" fill="none"/>
    <polyline points="40,24 44,24 44,28" stroke="#22d3ee" stroke-width="2" stroke-linecap="round" stroke-linejoin="round" fill="none"/>
  </g>
</svg>
